# xmcd CD database file
#
# Track frame offsets:
#	183
#	28358
#	51033
#	78358
#	97933
#	121608
#	141858
#	161208
#	180583
#	200058
#	222183
#	233508
#	256333
#
# Disc length: 3717 seconds
#
# Revision: 0
# Processed by: cddbd v1.4PL0 Copyright (c) Steve Scherf et al.
# Submitted via: CDex 1.50Beta7
#
DISCID=ad0e830d
DTITLE=Earl Bud Powell - Award at Birdland, 64
DYEAR=1964
DGENRE=Jazz
TTITLE0=Shaeffer Award
TTITLE1=The best thing for you
TTITLE2=Like someone in love
TTITLE3=Off minor
TTITLE4=Star eyes
TTITLE5=Indiana
TTITLE6=I should care
TTITLE7=Nice work if you can get it
TTITLE8=Monopoly
TTITLE9=All God's chillum got rhythm
TTITLE10=Lullaby of Birdland
TTITLE11=All the things you are
TTITLE12=Embraceable you
EXTD=YEAR: 1964
EXTT0=
EXTT1=
EXTT2=
EXTT3=
EXTT4=
EXTT5=
EXTT6=
EXTT7=
EXTT8=
EXTT9=
EXTT10=
EXTT11=
EXTT12=
PLAYORDER=
